<svg width="65.8" height="64.6" viewBox="0 0 65.8 64.6" xmlns="http://www.w3.org/2000/svg"><g id="svgGroup" stroke-linecap="round" fill-rule="evenodd" font-size="9pt" stroke="#000" stroke-width="0.25mm" fill="#000" style="stroke:#000;stroke-width:0.25mm;fill:#000"><path d="M 34.2 64.6 L 29.5 64.6 L 28.45 61.75 Q 27.511 59.201 26.092 55.211 A 1254.62 1254.62 0 0 1 25.75 54.25 Q 24.1 49.6 22.05 44.05 L 17.95 32.95 Q 15.9 27.4 14.25 22.8 Q 12.6 18.2 11.55 15.4 L 10.5 12.6 Q 9.114 9.047 7.727 7.221 A 8.748 8.748 0 0 0 7.3 6.7 Q 5.925 5.153 3.368 4.492 A 13.179 13.179 0 0 0 2.5 4.3 Q 1.123 4.005 0.569 3.807 A 3.617 3.617 0 0 1 0.55 3.8 A 0.57 0.57 0 0 1 0.26 3.538 Q 0.029 3.148 0.003 2.235 A 8.414 8.414 0 0 1 0 2 A 3.591 3.591 0 0 1 0.054 1.352 Q 0.253 0.268 1.2 0.15 A 17.992 17.992 0 0 1 2.327 0.047 Q 2.907 0.012 3.558 0.003 A 32.364 32.364 0 0 1 4 0 Q 10.7 0.1 14.4 2.45 A 12.21 12.21 0 0 1 17.539 5.389 Q 18.609 6.789 19.488 8.615 A 25.658 25.658 0 0 1 20.3 10.5 L 34.8 49.5 L 35.1 49.5 L 48.9 9.4 A 15.758 15.758 0 0 0 49.152 8.602 Q 49.869 6.089 49 5.35 A 2.367 2.367 0 0 0 48.299 4.961 Q 47.195 4.545 44.986 4.504 A 26.68 26.68 0 0 0 44.5 4.5 Q 43.715 4.5 43.115 4.377 A 4.281 4.281 0 0 1 42.8 4.3 Q 42.109 4.103 42.003 2.444 A 8.296 8.296 0 0 1 42 2.4 Q 42 1.6 42.4 0.9 A 1.314 1.314 0 0 1 43.343 0.231 A 1.956 1.956 0 0 1 43.7 0.2 Q 46.9 0.3 49.25 0.4 A 104.515 104.515 0 0 0 51.596 0.472 Q 53.006 0.5 54.6 0.5 Q 56.6 0.5 57.9 0.45 Q 59.2 0.4 60.55 0.35 Q 61.9 0.3 64 0.2 A 2.221 2.221 0 0 1 64.528 0.258 A 1.319 1.319 0 0 1 65.4 0.9 Q 65.8 1.6 65.8 2.4 Q 65.712 3.902 65.194 4.233 A 0.586 0.586 0 0 1 65.05 4.3 Q 64.402 4.499 63.306 4.5 A 7.942 7.942 0 0 1 63.3 4.5 A 16.747 16.747 0 0 0 60.979 4.651 Q 59.775 4.82 58.788 5.177 A 7.555 7.555 0 0 0 57.3 5.9 A 6.805 6.805 0 0 0 55.75 7.297 Q 54.584 8.691 53.627 10.989 A 23.656 23.656 0 0 0 53.5 11.3 A 0.003 0.003 0 0 0 53.499 11.297 Q 53.466 11.297 52.548 13.786 A 494.579 494.579 0 0 0 52.45 14.05 Q 51.646 16.232 50.461 19.528 A 1560.64 1560.64 0 0 0 49.7 21.65 Q 48 26.4 45.95 32.1 Q 43.9 37.8 41.8 43.5 Q 39.7 49.2 38 54 Q 36.3 58.8 35.25 61.7 L 34.2 64.6 Z" vector-effect="non-scaling-stroke"/></g></svg>